<?xml version="1.0" standalone="no"?>
<!DOCTYPE svg PUBLIC "-//W3C//DTD SVG 1.1//EN" "http://www.w3.org/Graphics/SVG/1.1/DTD/svg11.dtd" >
<svg xmlns="http://www.w3.org/2000/svg">
<metadata></metadata>
<defs>
<font id="intro_light_italicitalic" horiz-adv-x="605" >
<font-face units-per-em="1000" ascent="750" descent="-250" />
<missing-glyph horiz-adv-x="267" />
<glyph horiz-adv-x="0" />
<glyph horiz-adv-x="333" />
<glyph unicode=" "  horiz-adv-x="267" />
<glyph unicode="&#x09;" horiz-adv-x="267" />
<glyph unicode="&#xa0;" horiz-adv-x="267" />
<glyph unicode="!" horiz-adv-x="231" d="M51 -8q-26 0 -26 25q0 17 11 27t28 10q29 0 29 -25q0 -15 -13 -26t-29 -11zM58 128l120 572h50l-123 -572h-47z" />
<glyph unicode="&#x22;" horiz-adv-x="311" d="M165 700h40l-50 -213h-35zM283 700h40l-51 -213h-34z" />
<glyph unicode="#" horiz-adv-x="677" d="M30 210l8 37h130l66 184h-126l8 37h132l83 231h43l-82 -231h215l84 231h44l-83 -231h117l-8 -37h-123l-66 -184h119l-8 -37h-124l-75 -210h-46l76 210h-215l-76 -210h-46l77 210h-124zM278 432l-67 -186h218l65 186h-216z" />
<glyph unicode="$" horiz-adv-x="640" d="M386 710l14 67h45l-14 -68q92 -7 149.5 -50.5t44.5 -127.5h-48q6 43 -17.5 73.5t-59 44t-78.5 16.5l-62 -288q28 -4 42 -6.5t39 -7.5t37.5 -9.5t32 -13t28.5 -17.5t20 -22t14.5 -29t4 -36.5t-4.5 -45.5q-15 -66 -64.5 -111t-107 -64.5t-123.5 -23.5l-14 -68h-45l14 68 q-96 4 -158.5 53.5t-49.5 138.5h49q-9 -69 41 -105t128 -43l65 305q-43 5 -76 14.5t-62.5 25.5t-45.5 43t-16 64q0 53 25.5 96t67 69t88.5 40.5t97 17.5zM524 190q8 40 -1 67t-36.5 41t-53 20.5t-68.5 13.5q-9 1 -14 2l-63 -298q51 3 97 17.5t87 50t52 86.5zM159 495 q0 -24 10 -42t24 -29t37 -19.5t41.5 -12.5t45.5 -8l60 282q-52 -3 -99.5 -20.5t-83 -57t-35.5 -93.5z" />
<glyph unicode="%" horiz-adv-x="809" d="M144 -1l491 699h49l-490 -699h-50zM743 181q0 -89 -60.5 -141t-136.5 -52q-54 0 -91.5 33.5t-37.5 94.5q0 90 61 141t138 51q53 0 90 -34t37 -93zM459 122q0 -46 27.5 -71t68.5 -25q56 0 101 40t45 108q0 46 -26.5 71t-66.5 26q-57 0 -103 -40t-46 -109zM418 582 q0 -89 -61 -141t-136 -52q-54 0 -91.5 33.5t-37.5 93.5q0 89 61 141t137 52q54 0 91 -33.5t37 -93.5zM135 523q0 -46 27.5 -71.5t68.5 -25.5q55 0 100 41t45 108q0 46 -27 71t-68 25q-55 0 -100.5 -40.5t-45.5 -107.5z" />
<glyph unicode="&#x26;" horiz-adv-x="653" d="M576 549h-42q8 66 -30 91.5t-110 25.5q-79 0 -136.5 -37.5t-57.5 -111.5q0 -52 42.5 -78t117.5 -26l-9 -42q-30 0 -45 -1q-213 -20 -219 -194q-2 -65 41.5 -103.5t117.5 -38.5q94 0 157 58.5t83 154.5l34 162h121l-8 -40h-77l-26 -123q-26 -122 -103 -189t-188 -67 q-91 0 -147 49t-56 128q0 89 51 148.5t146 82.5q-87 30 -77 142q10 60 51.5 100t90.5 54.5t106 14.5q85 0 136 -39.5t36 -120.5z" />
<glyph unicode="'" horiz-adv-x="200" d="M165 700h48l-52 -213h-41z" />
<glyph unicode="(" horiz-adv-x="284" d="M329 759l16 -35q-89 -65 -155.5 -187.5t-94 -252t-12.5 -253.5t77 -190l-34 -36q-69 71 -87 204t9.5 273t102 273.5t178.5 203.5z" />
<glyph unicode=")" horiz-adv-x="285" d="M126 724l31 35q73 -70 91 -203.5t-13.5 -273.5t-106.5 -273t-174 -204l-20 37q86 65 153 186.5t97.5 250.5t17.5 253t-76 192z" />
<glyph unicode="*" horiz-adv-x="410" d="M410 592l-125 -41l62 -104l-33 -22l-59 108l-104 -109l-25 23l104 102l-106 42l18 35l106 -44l24 124h39l-31 -125l126 46z" />
<glyph unicode="+" horiz-adv-x="462" d="M71 345l9 41h150l32 151h41l-32 -151h149l-9 -41h-149l-32 -149h-41l32 149h-150z" />
<glyph unicode="," horiz-adv-x="226" d="M91 14l-11 -22l-45 -86h-36l41 82q-20 5 -20 26q0 17 13 28t31 11q12 0 21 -7t9 -18q0 -8 -3 -14z" />
<glyph unicode="-" horiz-adv-x="456" d="M75 312l9 43h313l-9 -43h-313z" />
<glyph unicode="." horiz-adv-x="215" d="M93 28q-7 -33 -44 -33q-14 0 -23 8.5t-6 24.5q3 15 16 24t27 9q15 0 24 -8.5t6 -24.5z" />
<glyph unicode="/" horiz-adv-x="473" d="M-18 1l487 699h51l-488 -699h-50z" />
<glyph unicode="0" horiz-adv-x="666" d="M424 709q110 0 168.5 -66t35.5 -175l-50 -238q-23 -110 -110 -175.5t-197 -65.5q-112 0 -171 65.5t-36 175.5l50 238q23 109 111 175t199 66zM275 35q69 0 128 31.5t94 88.5q21 35 34 85l49 218q12 45 5 86q-8 58 -52.5 89t-114.5 31t-128.5 -31.5t-94.5 -90.5 q-22 -35 -34 -84l-49 -218q-11 -43 -4 -90q8 -57 52 -86t115 -29z" />
<glyph unicode="1" horiz-adv-x="415" d="M273 659h-129l9 41h178l-140 -657h148l-9 -43h-344l9 43h147z" />
<glyph unicode="2" horiz-adv-x="533" d="M345 668q-156 0 -186 -143h-43q39 184 237 185q100 2 141.5 -57.5t16.5 -145t-104 -158.5q-22 -20 -55 -51.5t-103.5 -99t-166.5 -156.5l139 3h210l-10 -45h-432l2 11l387 364q47 42 73 93.5t26 95.5t-33.5 74t-98.5 30z" />
<glyph unicode="3" horiz-adv-x="578" d="M25 180h46q-5 -70 35 -108t113 -38q102 0 169 57.5t67 154.5q0 79 -55.5 115.5t-167.5 13.5l4 18l275 263h-356l10 44h441l-3 -12l-281 -268q84 6 133 -40t49 -124q0 -120 -81 -193.5t-209 -73.5q-94 0 -146.5 50.5t-42.5 140.5z" />
<glyph unicode="4" horiz-adv-x="579" d="M433 164l-35 -164h-47l35 164h-378l5 24l488 512h46l-105 -493h75l-9 -43h-75zM487 627h-2l-400 -419h311l42 195z" />
<glyph unicode="5" horiz-adv-x="580" d="M204 656l-48 -226q61 18 122.5 20t116.5 -13t89.5 -58.5t34.5 -110.5q0 -118 -88 -198t-209 -80q-90 0 -141 47t-45 135h45q0 -137 152 -137q87 0 158 59.5t79 166.5q4 63 -29.5 99t-93.5 42.5t-120 0.5t-125 -23l68 320h404l-10 -44h-360z" />
<glyph unicode="6" horiz-adv-x="581" d="M404 702h57l-260 -289q60 31 129 31q88 0 145 -50t57 -134q0 -121 -90 -194.5t-214 -73.5q-91 0 -149.5 49t-58.5 134q0 95 78 180zM227 36q99 0 174.5 59t81.5 156q4 69 -41.5 108.5t-119.5 39.5q-99 0 -173 -59t-80 -156q-4 -68 41 -108t117 -40z" />
<glyph unicode="7" horiz-adv-x="508" d="M575 700l-2 -8l-482 -692h-52l456 655h-382l10 45h452z" />
<glyph unicode="8" horiz-adv-x="621" d="M427 389q56 -16 89 -57.5t33 -101.5q0 -108 -91.5 -176.5t-211.5 -68.5q-92 0 -152.5 47.5t-60.5 128.5q0 86 57.5 145t145.5 83q-38 16 -61 47.5t-23 75.5q0 90 75.5 146.5t173.5 56.5q77 0 127.5 -39.5t50.5 -106.5q0 -65 -42.5 -111.5t-109.5 -68.5zM328 407 q75 0 137 41.5t66 112.5q2 52 -36.5 82t-96.5 30q-74 0 -135.5 -42.5t-65.5 -113.5q-2 -52 35.5 -81t95.5 -29zM249 29q94 0 170 53.5t80 143.5q2 67 -46.5 103t-121.5 36q-59 0 -114 -21.5t-94 -67.5t-40 -107q-2 -65 46 -102.5t120 -37.5z" />
<glyph unicode="9" horiz-adv-x="581" d="M205 0h-56l260 293q-55 -28 -128 -28q-90 0 -147 48.5t-57 132.5q0 122 90.5 195t214.5 73q92 0 150 -46.5t58 -133.5q0 -100 -81 -184zM380 670q-100 0 -175.5 -59t-79.5 -159q-4 -70 42 -107.5t120 -37.5q97 0 173.5 60.5t80.5 157.5q4 70 -41 107.5t-120 37.5z" />
<glyph unicode=":" horiz-adv-x="213" d="M44 -6q-13 0 -21 8t-8 19q0 17 12.5 28t30.5 11q13 0 21.5 -7.5t8.5 -19.5q0 -17 -13 -28t-31 -11zM117 338q-13 0 -21 8t-8 19q0 17 12.5 28t30.5 11q13 0 21.5 -7.5t8.5 -19.5q0 -17 -13 -28t-31 -11z" />
<glyph unicode=";" horiz-adv-x="221" d="M120 340q-26 0 -26 25q0 17 11.5 27t27.5 10q12 0 20 -7t8 -19q0 -15 -13 -25.5t-28 -10.5zM86 15l-10 -20l-37 -68h-32l33 64q-19 4 -19 24q0 15 12 25.5t28 10.5q12 0 19.5 -6.5t7.5 -17.5q0 -6 -2 -12z" />
<glyph unicode="&#x3c;" horiz-adv-x="503" d="M55 330l8 37l415 169l-10 -45l-351 -143l289 -151l-10 -44z" />
<glyph unicode="=" horiz-adv-x="527" d="M62 219l9 41h371l-9 -41h-371zM92 362l9 41h371l-9 -41h-371z" />
<glyph unicode="&#x3e;" horiz-adv-x="502" d="M472 367l-7 -37l-417 -177l10 46l353 150l-292 140l10 47z" />
<glyph unicode="?" horiz-adv-x="490" d="M228 129h-49q14 72 43.5 125.5t62.5 83.5t65.5 55.5t59.5 58t38 73.5q19 70 -19 100.5t-108 30.5q-65 0 -118.5 -29t-65.5 -92h-44q17 83 84.5 125.5t154.5 42.5q88 0 139 -50t23 -143q-13 -44 -42 -79.5t-62 -61.5t-66 -55t-59.5 -76t-36.5 -109zM173 -12q-12 0 -20 7.5 t-8 19.5q0 15 12.5 25t28.5 10q27 0 27 -25q0 -16 -11.5 -26.5t-28.5 -10.5z" />
<glyph unicode="@" horiz-adv-x="894" d="M583 97l7 26q-35 -58 -98 -92.5t-127 -34.5q-103 0 -143.5 72.5t-15.5 177.5q31 124 116.5 188t191.5 64q54 -1 104.5 -22t81.5 -56l-76 -305q-11 -32 -9 -57t28 -25q29 -1 57.5 21.5t49 58t35 70.5t22.5 67q40 163 -34.5 260t-241.5 97q-163 0 -282.5 -99.5 t-164.5 -261.5q-28 -101 -10.5 -179.5t72.5 -120t140 -51t192 27.5l-8 -35q-107 -36 -198.5 -27.5t-149.5 56.5t-81.5 131t6.5 198q45 177 179 286t314 109q177 0 261 -107.5t40 -283.5q-11 -44 -28 -84.5t-42.5 -81t-62.5 -64.5t-80 -24q-74 0 -45 101zM607 230l42 173 q-51 47 -150 52q-82 0 -151 -55t-94 -158q-23 -94 6.5 -148t115.5 -54q80 0 144.5 55t86.5 135z" />
<glyph unicode="A" horiz-adv-x="708" d="M533 202h-381l-138 -202h-56l1 6l476 696h23l177 -696l-1 -6h-49zM432 619l-254 -373h347z" />
<glyph unicode="B" horiz-adv-x="666" d="M633 555q0 -67 -36 -121t-106 -75q51 -13 78 -48t27 -86q0 -107 -75.5 -166t-191.5 -59h-291l149 700h256q87 0 138.5 -35.5t51.5 -109.5zM431 655h-204l-58 -274h208q206 0 206 167q0 107 -152 107zM373 338h-213l-62 -292h238q91 0 150 44t59 132q0 116 -172 116z" />
<glyph unicode="C" horiz-adv-x="760" d="M60 279q0 120 60 220t161 155.5t217 54.5q102 0 174.5 -54t86.5 -150h-49q-11 77 -73 117t-151 40q-156 -2 -265 -111t-109 -263q0 -113 59.5 -181t177.5 -68q89 0 171 44.5t131 124.5h50q-54 -104 -151.5 -160t-205.5 -56q-129 0 -206.5 79t-77.5 208z" />
<glyph unicode="D" horiz-adv-x="735" d="M187 700h241q129 0 202.5 -80t71.5 -201q-3 -112 -54.5 -207t-148.5 -153.5t-220 -58.5h-241zM99 47h188q151 0 253 106t110 257q6 108 -54 175.5t-179 67.5h-189z" />
<glyph unicode="E" horiz-adv-x="567" d="M591 700l-10 -44h-354l-57 -272h339q-4 -15 -10 -45h-339q-18 -82 -62 -293h357q-4 -16 -10 -46h-407q103 492 149 700h404z" />
<glyph unicode="F" horiz-adv-x="556" d="M498 364l-9 -46h-332l-68 -318h-51l149 700h409l-10 -45h-358l-62 -291h332z" />
<glyph unicode="G" horiz-adv-x="782" d="M60 278q0 181 128.5 306.5t303.5 125.5q111 0 181 -49t85 -150h-45q-34 154 -231 154q-155 -2 -263 -113t-108 -266q0 -111 58.5 -179.5t173.5 -68.5q125 0 222.5 76.5t131.5 200.5h-276l9 44h326q-21 -105 -68 -176q-59 -92 -150 -142.5t-200 -50.5q-128 0 -203 80 t-75 208z" />
<glyph unicode="H" horiz-adv-x="721" d="M561 0h-51l73 344h-422l-73 -344h-50l149 700h50l-66 -309h422l66 309h51z" />
<glyph unicode="I" horiz-adv-x="376" d="M161 41h133l-9 -41h-316l9 41h133l131 618h-124l9 41h298l-9 -41h-124z" />
<glyph unicode="J" horiz-adv-x="639" d="M636 700l-99 -464q-24 -114 -109.5 -180t-203.5 -66q-114 0 -169.5 66t-31.5 180l11 50h49l-11 -50q-21 -95 22.5 -147.5t136.5 -52.5q94 0 164.5 53.5t90.5 146.5l89 418h-196l10 46h247z" />
<glyph unicode="K" horiz-adv-x="645" d="M238 700l-71 -334q138 0 183 23q11 5 22 14t22.5 23t19 24t19 31t15.5 28.5t16.5 31t13.5 26.5q42 81 90 113t132 19l-8 -37q-68 8 -101 -16.5t-69 -93.5q-70 -142 -137 -189l184 -356l-1 -7h-50l-174 341q-42 -19 -187 -19l-68 -322h-51l149 700h51z" />
<glyph unicode="L" horiz-adv-x="505" d="M238 700l-139 -654h348l-10 -46h-399l149 700h51z" />
<glyph unicode="M" horiz-adv-x="823" d="M407 281l380 420h25l-149 -701h-51l122 575l-334 -370h-10l-179 370l-122 -575h-51l149 701h17z" />
<glyph unicode="N" horiz-adv-x="743" d="M566 0l-354 597l-48 -245l-75 -352h-51l149 701h20l352 -597l51 262l71 335h51l-149 -701h-17z" />
<glyph unicode="O" horiz-adv-x="820" d="M787 422q0 -182 -129 -307.5t-312 -125.5q-129 0 -207.5 80t-78.5 209q0 184 131 308.5t308 124.5q130 0 209 -80t79 -209zM109 287q-4 -112 62 -181.5t177 -69.5q155 0 270 109.5t119 267.5q2 111 -63.5 180.5t-176.5 69.5q-155 0 -269.5 -108.5t-118.5 -267.5z" />
<glyph unicode="P" horiz-adv-x="647" d="M88 0h-50l149 701h271q105 0 156.5 -65t36.5 -168q-14 -102 -96 -166.5t-196 -64.5h-221zM148 284h221q96 0 166.5 63.5t70.5 157.5q0 70 -40.5 110t-117.5 40h-221z" />
<glyph unicode="Q" horiz-adv-x="818" d="M689 -4l-2 -8h-48l-42 82q-109 -78 -252 -78q-129 0 -207 79.5t-78 208.5q0 182 129.5 307t310.5 125q129 0 208 -80t79 -209q0 -187 -150 -322zM110 289q-4 -112 62 -181t177 -69q155 0 269.5 108t118.5 267q2 112 -63 180.5t-177 68.5q-153 0 -268 -108.5t-119 -265.5z " />
<glyph unicode="R" horiz-adv-x="662" d="M411 273l162 -265l-2 -8h-52l-157 267h-216l-57 -267h-51l149 700h269q94 0 142 -48t48 -134q0 -99 -61 -163.5t-174 -81.5zM154 311h212q92 0 163 57.5t71 146.5q0 142 -154 142h-219z" />
<glyph unicode="S" horiz-adv-x="644" d="M27 183h45q-6 -39 10.5 -69t48 -47t67.5 -25t74 -8q86 0 160 40.5t91 116.5q4 29 2.5 50t-15.5 36t-30 25t-41.5 16.5t-48.5 11t-51 8.5q-5 1 -8 1q-49 6 -83 13.5t-68.5 23.5t-52.5 44t-18 67q0 56 27.5 100.5t72 70.5t95 39.5t101.5 13.5q68 0 119.5 -17.5t81.5 -60 t20 -105.5h-44q6 38 -9 66.5t-44.5 44t-62.5 22.5t-68 7q-58 0 -110 -18t-89.5 -59t-37.5 -98q0 -31 14 -52t40.5 -31.5t52.5 -16t61 -9.5q13 -1 19 -2q24 -4 43 -7t41.5 -8.5t39.5 -11.5t34.5 -15t30 -19.5t22.5 -24.5t15 -30.5t5 -37t-6 -44.5q-15 -66 -65.5 -111 t-112 -64t-130.5 -19t-124.5 18.5t-89.5 63.5t-24 111z" />
<glyph unicode="T" horiz-adv-x="540" d="M322 654h-230q6 30 10 46h510q-4 -16 -10 -46h-230l-139 -654h-50z" />
<glyph unicode="U" horiz-adv-x="706" d="M292 -9q-118 0 -176 66.5t-34 182.5l98 460h50l-98 -459q-20 -96 24.5 -150.5t140.5 -54.5t167.5 55t91.5 150l98 459h49l-98 -460q-24 -116 -109 -182.5t-204 -66.5z" />
<glyph unicode="V" horiz-adv-x="658" d="M282 90h1l173 286l199 324h56l-1 -7l-435 -695h-21l-141 695l1 7h51l53 -277z" />
<glyph unicode="W" horiz-adv-x="941" d="M537 687h26l68 -587h1l133 269l169 331h53l-2 -6l-359 -697h-28l-70 578l-314 -578h-26l-66 695l2 8h47l25 -281l24 -320z" />
<glyph unicode="X" horiz-adv-x="604" d="M325 409h1l275 291h55l-1 -6l-307 -325l187 -363l-1 -6h-51l-165 328h-2l-306 -328h-60l1 7l341 362l-168 324l2 7h51z" />
<glyph unicode="Y" horiz-adv-x="622" d="M315 345h2l303 355h58l-1 -7l-344 -402l-62 -291h-50l62 291l-173 403q0 2 0.5 3t0.5 3h51z" />
<glyph unicode="Z" horiz-adv-x="573" d="M630 700l-2 -8l-396 -442l-187 -207l271 4h175l-10 -47h-525l1 6l384 430l198 220l-184 -2h-226l10 46h491z" />
<glyph unicode="[" horiz-adv-x="280" d="M338 748l-9 -40h-106l-177 -833h106l-9 -43h-152l195 916h152z" />
<glyph unicode="\" horiz-adv-x="456" d="M172 700l189 -699h-50l-190 699h51z" />
<glyph unicode="]" horiz-adv-x="281" d="M130 708l9 40h152l-195 -916h-152l9 43h106l177 833h-106z" />
<glyph unicode="^" horiz-adv-x="498" d="M319 698h36l113 -275h-46l-91 229l-187 -229h-50z" />
<glyph unicode="_" horiz-adv-x="617" d="M-2 -56l9 43h474l-9 -43h-474z" />
<glyph unicode="`" horiz-adv-x="336" d="M357 590v-3h-44l-61 109l1 5l46 20z" />
<glyph unicode="a" horiz-adv-x="590" d="M531 446l-70 -329q-13 -39 -5 -59t52 -15l-8 -43q-59 -9 -78.5 12.5t-7.5 76.5l5 24q-38 -59 -94 -89t-121 -30q-104 0 -146 72.5t-19 179.5q26 115 111.5 180t204.5 65q92 0 176 -45zM442 243l37 174q-64 34 -135 34q-92 0 -163.5 -55t-93.5 -150q-10 -57 -5.5 -103 t38.5 -75t93 -29q84 0 146.5 56.5t82.5 147.5z" />
<glyph unicode="b" horiz-adv-x="574" d="M113 236l-39 -177q59 -28 138 -28q94 0 162 54t92 151q25 104 -11.5 158.5t-118.5 54.5q-83 0 -144.5 -65.5t-78.5 -147.5zM23 33l147 692h45l-74 -349q33 51 86 83t119 32q95 0 147 -66.5t22 -188.5q-29 -122 -112 -185t-204 -63q-89 0 -176 45z" />
<glyph unicode="c" horiz-adv-x="568" d="M534 349h-47q-11 49 -52 75.5t-96 25.5q-96 0 -176.5 -69t-80.5 -179q0 -79 45.5 -122.5t115.5 -43.5q58 0 116 30t90 85h53q-38 -77 -111 -117.5t-151 -40.5q-87 0 -147 53t-60 148q0 70 29 128.5t75.5 95t102 56t110.5 19.5q73 0 124.5 -37.5t59.5 -106.5z" />
<glyph unicode="d" horiz-adv-x="596" d="M208 38q81 0 149 55t85 145q22 95 -10 158.5t-120 63.5q-92 0 -149.5 -61t-77.5 -152q-19 -88 12 -148.5t111 -60.5zM549 736h46l-140 -655q-7 -29 6 -38t47 -4l-7 -39q-59 -9 -78.5 12.5t-7.5 76.5l5 21q-75 -116 -215 -116q-103 0 -146 74t-20 181q23 108 95.5 180.5 t177.5 72.5q65 0 109 -29.5t54 -80.5z" />
<glyph unicode="e" horiz-adv-x="537" d="M427 71l-10 -46q-85 -33 -171 -33q-132 0 -185.5 76.5t-13.5 208.5q30 101 109.5 158.5t183.5 57.5q82 0 134.5 -41t30.5 -117q-20 -69 -84.5 -101.5t-138.5 -32.5q-136 0 -194 58q-32 -104 11.5 -163t152.5 -59q92 0 175 34zM103 302q24 -28 76.5 -42.5t106.5 -14.5 q58 0 106.5 21t64.5 71q11 38 -7 64.5t-49.5 37t-70.5 10.5q-78 0 -137.5 -37t-89.5 -110z" />
<glyph unicode="f" horiz-adv-x="377" d="M405 442h-186l-106 -499q-23 -113 -74 -162t-150 -30l10 39q42 -8 70.5 -1t47 30.5t28.5 50.5t20 73l106 499h-124l8 40h124l19 87q14 62 45.5 102.5t72 55t86 10.5t91.5 -26l-18 -39q-49 23 -93.5 24.5t-83 -30t-52.5 -98.5l-18 -86h185z" />
<glyph unicode="g" horiz-adv-x="575" d="M441 243l37 172q-64 34 -136 34q-110 0 -182.5 -69.5t-78.5 -187.5q-4 -79 31 -120t104 -41q83 0 145.5 65t79.5 147zM-22 -209l19 38q48 -32 107.5 -42.5t116.5 1.5t102.5 59t61.5 122l30 139q-71 -120 -210 -120q-83 0 -129 50t-44 144q4 144 95 226.5t228 82.5 q92 0 176 -45l-101 -477q-19 -87 -69 -143.5t-113.5 -74.5t-134.5 -8t-135 48z" />
<glyph unicode="h" horiz-adv-x="584" d="M128 284l-60 -284h-49l155 731h48l-68 -323q35 45 87.5 66t104.5 21q97 0 136 -55t18 -153l-41 -191q-9 -39 1.5 -52.5t54.5 -2.5l-7 -40q-65 -12 -88 10t-10 83l41 194q18 85 -11 124.5t-111 39.5q-75 0 -130 -46.5t-71 -121.5z" />
<glyph unicode="i" horiz-adv-x="214" d="M171 479l-102 -479h-47l102 479h47zM150 645q0 17 12.5 27t28.5 10q25 0 25 -24q0 -18 -11.5 -28t-26.5 -10q-28 0 -28 25z" />
<glyph unicode="j" horiz-adv-x="214" d="M124 480h48l-114 -537q-23 -113 -74 -162t-150 -30l10 39q42 -8 70.5 -1t47 30.5t28.5 50.5t20 73zM146 645q0 17 12.5 27t28.5 10q11 0 18.5 -7.5t7.5 -19.5q0 -17 -11.5 -26t-27.5 -9q-28 0 -28 25z" />
<glyph unicode="k" horiz-adv-x="518" d="M125 273h80q216 0 259 210h46q-38 -186 -199 -234l122 -244l-1 -5h-46l-116 239q-46 -8 -75 -8h-79l-49 -231h-48l155 731h48z" />
<glyph unicode="l" horiz-adv-x="255" d="M170 733h49l-117 -551q-10 -52 -10.5 -87.5t26.5 -50t87 -4.5l-7 -41q-107 -15 -138 29.5t-7 152.5z" />
<glyph unicode="m" horiz-adv-x="900" d="M64 448l8 36q63 11 83 -14t7 -80q70 102 200 102q118 0 123 -117q67 117 211 117q59 0 91 -28.5t35 -73.5t-7 -101l-36 -171q-15 -43 -6.5 -66t59.5 -14l-8 -38q-71 -14 -90.5 13.5t-4.5 97.5l37 178q9 49 8.5 85t-25 56t-76.5 20q-72 0 -122.5 -46.5t-66.5 -121.5 l-60 -282h-48l60 282q34 167 -96 167q-74 0 -126.5 -45.5t-68.5 -121.5l-60 -282h-48l72 337q18 66 11.5 91.5t-56.5 19.5z" />
<glyph unicode="n" horiz-adv-x="593" d="M64 452l7 33q56 13 77.5 -11t9.5 -80q69 98 202 98q89 0 129.5 -57t22.5 -145l-40 -185q-12 -42 -1.5 -59t52.5 -9l-8 -38q-65 -11 -85.5 13t-6.5 88l41 190q16 74 -16 117.5t-108 43.5q-71 0 -126.5 -45.5t-71.5 -119.5l-61 -286h-48l74 348q17 61 11.5 85t-54.5 19z " />
<glyph unicode="o" d="M553 292q0 -93 -49 -163.5t-118.5 -103t-144.5 -32.5q-88 0 -148 52.5t-60 147.5q0 93 49 163t118.5 103t145.5 33q87 0 147 -53t60 -147zM80 201q-4 -77 44 -120.5t118 -43.5q97 0 177 67t84 179q2 78 -44 121.5t-117 43.5q-98 0 -178 -66.5t-84 -180.5z" />
<glyph unicode="p" horiz-adv-x="596" d="M495 291q2 71 -30 115.5t-103 44.5q-102 0 -168.5 -74t-70.5 -181q-4 -72 29 -119t101 -47q107 0 172.5 79.5t69.5 181.5zM24 -246h-44l131 615q13 57 5.5 73.5t-49.5 12.5l6 35q59 9 79 -12.5t8 -76.5l-5 -24q35 57 92.5 88t123.5 31q84 0 128.5 -55t44.5 -140 q0 -58 -19.5 -113.5t-54 -100t-89 -72t-119.5 -27.5q-67 0 -107 25.5t-57 86.5z" />
<glyph unicode="q" horiz-adv-x="576" d="M442 243l37 172q-64 34 -135 34q-112 0 -186.5 -72t-74.5 -190q0 -157 134 -157q83 0 145.5 65t79.5 148zM533 446l-147 -692h-44l76 357q-70 -123 -210 -123q-85 0 -130 50t-45 145q0 142 93.5 225t229.5 83q93 0 177 -45z" />
<glyph unicode="r" horiz-adv-x="422" d="M163 418q31 40 76.5 58t91.5 16q71 -2 115 -38l-26 -42q-41 34 -103 34q-57 0 -107.5 -37.5t-62.5 -96.5l-66 -312h-48l79 371q12 36 4 55t-51 14l6 41q56 9 76.5 -6.5t15.5 -56.5z" />
<glyph unicode="s" horiz-adv-x="507" d="M10 131h47q-6 -49 37.5 -75.5t106.5 -26.5q65 0 117.5 26t63.5 75q8 36 -15 58t-43.5 26.5t-67.5 10.5q-8 1 -12 2q-39 5 -64.5 10.5t-54 17t-43 31.5t-14.5 49q0 53 35 90t84.5 51.5t108.5 14.5q80 0 130.5 -33.5t37.5 -93.5h-44q8 42 -31 64.5t-101 22.5 q-63 0 -113.5 -24.5t-58.5 -71.5q-5 -11 -1.5 -20.5t5 -16.5t10 -13t14 -10.5t17 -8t19.5 -5.5t20.5 -4t20.5 -3l20 -2.5t18 -2.5q41 -5 71.5 -13t58 -23.5t38 -43t1.5 -65.5q-15 -68 -81 -101.5t-156 -33.5q-53 0 -94.5 13.5t-66.5 46.5t-20 82z" />
<glyph unicode="t" horiz-adv-x="396" d="M248 629l-31 -148h187l-9 -40h-187l-55 -260q-23 -110 18.5 -137t158.5 11l-2 -42q-132 -44 -191 -3t-32 170l55 261l-109 3l8 37h110l35 148h44z" />
<glyph unicode="u" horiz-adv-x="573" d="M115 482h48l-62 -293q-17 -79 17 -117t107 -38q72 0 122 44t66 119l61 285h47l-76 -359q-13 -59 -6 -76.5t48 -9.5l-7 -39q-60 -9 -78.5 6t-6.5 71q-45 -48 -88 -67t-103 -19q-89 0 -130 56t-21 144z" />
<glyph unicode="v" horiz-adv-x="561" d="M233 36q58 0 101.5 21.5t67.5 59.5t38.5 82.5t16.5 98t0 97.5t-9 89h47q10 -63 11.5 -122t-10.5 -128t-40.5 -119t-87.5 -84.5t-144 -35.5q-93 2 -137.5 56.5t-24.5 145.5l39 186q12 38 2 56t-53 12l8 37q65 11 85.5 -12.5t5.5 -88.5l-39 -190q-16 -69 19 -115t104 -46z " />
<glyph unicode="w" horiz-adv-x="856" d="M218 36q66 0 113 43.5t61 113.5l62 289h46l-62 -289q-16 -68 15.5 -112.5t96.5 -44.5q62 0 105 33.5t62.5 82.5t27 113t4.5 117t-11 102h46q9 -57 12 -111t-5.5 -124t-31 -121.5t-74 -89.5t-127.5 -41q-62 -2 -106.5 26.5t-52.5 82.5q-27 -51 -79 -81t-114 -30 q-85 1 -124 53.5t-19 143.5l41 193q11 36 0.5 54.5t-53.5 12.5l8 36q65 11 85.5 -12.5t6.5 -88.5l-41 -194q-16 -73 14 -115t94 -42z" />
<glyph unicode="x" horiz-adv-x="467" d="M225 220h-2l-216 -220h-52l1 5l247 251l-119 221l1 5h45l102 -193h2l187 193h52l-1 -5l-218 -223l134 -249l-1 -5h-45z" />
<glyph unicode="y" d="M5 -210l15 43q47 -30 106.5 -42t117.5 -3.5t104.5 53t62.5 120.5l30 138q-72 -111 -206 -111q-99 0 -143 60t-18 179l31 148q12 40 2 58t-56 10q1 6 3.5 19.5t4.5 18.5q67 12 87 -12t8 -89l-32 -153q-22 -105 8.5 -150.5t120.5 -45.5q86 0 144.5 68t76.5 156l48 227h47 l-111 -521q-18 -87 -70.5 -142.5t-118 -71.5t-135.5 -5t-127 48z" />
<glyph unicode="z" horiz-adv-x="453" d="M459 482l-1 -9l-401 -428h307l-10 -45h-390l1 7l408 433h-291l8 42h369z" />
<glyph unicode="{" horiz-adv-x="280" d="M340 757l-8 -38q-52 0 -78.5 -20t-37.5 -72l-43 -200q-7 -40 -28 -77t-55 -51q54 -26 29 -129l-43 -204q-11 -58 5 -74t71 -16l-8 -41q-77 0 -104 27t-11 103l43 202q21 105 -34 113l8 37q62 10 82 114l42 197q15 74 55 101.5t115 27.5z" />
<glyph unicode="|" horiz-adv-x="225" d="M178 698h44l-165 -774h-44q11 46 83 388t82 386z" />
<glyph unicode="}" horiz-adv-x="277" d="M132 719l8 38q76 0 103 -27t12 -102l-42 -197q-4 -23 -5.5 -35.5t-1.5 -33t9.5 -31.5t27.5 -14l-7 -37q-58 -9 -79 -113l-43 -202q-16 -75 -55 -102.5t-115 -27.5l9 41q52 -1 78 18.5t37 71.5l43 204q25 106 84 129q-52 26 -29 128l42 200q11 52 -6.5 72t-69.5 20z" />
<glyph unicode="~" horiz-adv-x="606" d="M103 302l-28 17q34 51 80 72.5t91.5 14.5t84.5 -38q118 -97 196 24q6 -4 15.5 -8.5t14.5 -7.5q-36 -57 -80 -78.5t-85.5 -12.5t-84.5 42q-33 25 -66 34t-70.5 -4.5t-67.5 -54.5z" />
<glyph unicode="&#xa1;" horiz-adv-x="213" d="M151 488q26 0 26 -25q0 -17 -11 -27t-29 -10q-12 0 -20 6.5t-8 18.5q0 15 13 26t29 11zM144 347l-119 -572h-54l124 572h49z" />
<glyph unicode="&#xa2;" horiz-adv-x="601" d="M551 347l-46 -5q-13 69 -84 96l-219 -394q71 -23 151 7.5t122 108.5l45 -4q-50 -99 -150.5 -140.5t-189.5 -12.5l-46 -81h-27l50 90q-50 22 -78.5 69t-28.5 113q0 64 24.5 119t63.5 90.5t88.5 60t99.5 28t96 -4.5l41 75h27l-45 -81q94 -35 106 -134zM181 55l218 390 q-47 9 -99 -3t-97 -41t-74.5 -81.5t-29.5 -117.5q0 -52 22.5 -90t59.5 -57z" />
<glyph unicode="&#xa3;" horiz-adv-x="655" d="M644 643l-28 -37q-54 60 -155 58q-125 -2 -184.5 -72t-71.5 -215h254l-9 -41h-248q-2 -102 -27 -164q-26 -62 -63 -102q35 15 79.5 11t77 -14.5t75.5 -22t75 -11.5q44 0 71 25.5t41 89.5h42q-15 -83 -53.5 -120.5t-102.5 -37.5q-32 0 -87.5 13t-100 24t-95.5 6.5 t-86 -33.5h-50l1 6q58 47 90 90.5t51 109.5q10 46 12 130h-91l9 41h86q9 152 89 242t224 90q112 0 175 -66z" />
<glyph unicode="&#xa4;" horiz-adv-x="533" d="M406 143l-48 61q-56 -35 -118 -35q-60 0 -101 35l-74 -61l-23 29l73 60q-18 31 -18 77q0 73 61 136l-45 59l35 29l44 -58q61 37 122 37q58 0 102 -39l73 60l23 -29l-72 -59q15 -32 15 -74q0 -74 -62 -138l48 -61zM415 366q2 49 -28.5 77t-76.5 28q-65 0 -118 -42 t-57 -115q-2 -50 29.5 -77.5t79.5 -27.5q63 0 115 42.5t56 114.5z" />
<glyph unicode="&#xa5;" horiz-adv-x="534" d="M228 0h-51l36 168h-144l9 41h144l13 63h-144l9 41h132l-110 381q0 2 0.5 3t0.5 3h55l98 -359l251 359h53q0 -2 -0.5 -3t-0.5 -3l-273 -381h132l-9 -41h-143l-13 -63h143l-9 -41h-143z" />
<glyph unicode="&#xa6;" horiz-adv-x="228" d="M179 698h44l-63 -300h-44q17 91 63 300zM94 294h44l-65 -304h-44q16 83 65 304z" />
<glyph unicode="&#xa7;" horiz-adv-x="638" d="M389 166q49 13 89 46.5t49 78.5q16 72 -62 97q-34 11 -128 22q-6 1 -28 3.5t-34 4.5q-61 -14 -105.5 -50t-44.5 -92q0 -46 32 -64.5t92 -25.5q100 -11 140 -20zM222 434q-89 26 -89 103q0 60 44.5 104t105 62.5t125.5 18.5q55 2 104.5 -12.5t82.5 -51.5t24 -91h-45 q6 41 -23 69t-68 37.5t-82 9.5q-84 0 -151 -35.5t-67 -104.5q0 -25 12.5 -41.5t40.5 -26t51 -14t66 -9.5q29 -3 47.5 -5.5t45.5 -7t41.5 -9.5t36.5 -14t29.5 -20t20 -27t8.5 -35t-4 -44q-11 -49 -49.5 -85.5t-89.5 -55.5q49 -18 70 -49t10 -86q-13 -57 -64 -96t-108.5 -54 t-117.5 -17q-44 -1 -86 7.5t-78.5 26.5t-55.5 52t-12 79h49q-7 -45 25 -75t76 -40.5t91 -8.5q34 1 68.5 8t69.5 21t61 39t33 58q6 26 -0.5 46.5t-23.5 33.5t-38 22t-49.5 14t-51.5 7.5t-49 4.5q-18 1 -26 2q-81 10 -124.5 42.5t-32.5 104.5q8 53 48.5 89.5t98.5 53.5z" />
<glyph unicode="&#xa8;" horiz-adv-x="512" d="M305 643q-28 0 -28 26q0 17 11.5 27.5t29.5 10.5q13 0 20.5 -7.5t7.5 -19.5q0 -15 -12.5 -26t-28.5 -11zM524 643q-28 0 -28 26q0 17 11.5 27.5t29.5 10.5q12 0 20 -7.5t8 -19.5q0 -15 -12.5 -26t-28.5 -11z" />
<glyph unicode="&#xa9;" horiz-adv-x="801" d="M759 416q0 -96 -38 -176t-99 -129.5t-134 -76t-148 -26.5q-114 0 -193.5 72t-79.5 198q0 97 38.5 176.5t100.5 129t136 76t149 26.5q114 0 191 -71.5t77 -198.5zM582 411l-34 -5q-4 37 -31 56.5t-66 19.5q-63 0 -115.5 -44t-52.5 -116q0 -48 30 -78t78 -32q40 -1 78 20 t60 61l32 -4q-27 -53 -76 -81.5t-102 -28.5q-57 0 -96.5 35.5t-39.5 98.5q0 92 66 147t146 55q51 0 85.5 -27t37.5 -77zM107 285q0 -114 69 -178t171 -64q66 0 131 24t119.5 68t88 115.5t33.5 158.5q0 114 -69 178t-168 64q-52 0 -105 -14.5t-101.5 -44.5t-86 -72.5 t-60 -103.5t-22.5 -131z" />
<glyph unicode="&#xaa;" horiz-adv-x="492" d="M367 403q-51 -65 -156 -65q-46 0 -75.5 24.5t-29.5 68.5q0 66 52 103t116 37q69 -2 118 -30l8 37q11 50 -16 69t-83 19q-62 0 -112 -27l-2 35q60 31 126 31q70 0 105 -30.5t22 -96.5l-36 -168q-5 -25 2.5 -33.5t30.5 -5.5l-3 -30q-39 -7 -57.5 6.5t-9.5 55.5zM79 219 l9 40h315l-9 -40h-315zM372 449l12 56q-48 30 -113 30q-44 0 -78.5 -20.5t-42.5 -62.5q-9 -37 13 -57t61 -20q45 0 87 18.5t61 55.5z" />
<glyph unicode="&#xab;" horiz-adv-x="447" d="M281 547l-150 -201l65 -199l-42 -13l-82 212l172 213zM435 547l-150 -201l65 -199l-42 -13l-82 212l172 213z" />
<glyph unicode="&#xac;" horiz-adv-x="545" d="M86 324l9 43h390l-47 -224h-41l38 181h-349z" />
<glyph unicode="&#xad;" horiz-adv-x="456" d="M75 312l9 43h313l-9 -43h-313z" />
<glyph unicode="&#xae;" horiz-adv-x="799" d="M758 419q0 -78 -25 -145t-66.5 -114.5t-95.5 -81.5t-112.5 -50.5t-117.5 -16.5q-115 0 -194 71t-79 199q0 96 38 176t99 129t134 76t147 27q114 0 193 -72t79 -198zM457 308l71 -119l-1 -4h-37l-68 119h-87l-26 -119h-34l70 328h129q42 0 67 -22.5t25 -62.5 q0 -47 -30.5 -80t-78.5 -40zM372 482l-31 -148h93q40 0 68.5 24.5t28.5 62.5q0 27 -18 44t-48 17h-93zM107 287q0 -115 69.5 -178t172.5 -63q66 0 130.5 24.5t118.5 69t87.5 115.5t33.5 157q0 114 -69 178t-171 64q-52 0 -104.5 -14.5t-100.5 -45t-85.5 -73.5t-59.5 -103.5 t-22 -130.5z" />
<glyph unicode="&#xaf;" horiz-adv-x="499" d="M236 656l9 41h286l-9 -41h-286z" />
<glyph unicode="&#xb0;" horiz-adv-x="424" d="M428 587q0 -81 -59 -128t-133 -47q-54 0 -90.5 31t-36.5 88q0 81 59 127.5t133 46.5q53 0 90 -31.5t37 -86.5zM148 537q0 -43 27.5 -67t68.5 -24q55 0 99.5 36.5t44.5 98.5q0 43 -26.5 66t-67.5 24q-56 0 -101 -35.5t-45 -98.5z" />
<glyph unicode="&#xb1;" horiz-adv-x="514" d="M101 345l8 40h152l33 152h40l-33 -152h152l-8 -40h-152l-34 -161h-40l34 161h-152zM28 54l9 43h363l-9 -43h-363z" />
<glyph unicode="&#xb2;" horiz-adv-x="401" d="M358 416l-8 -36h-266l2 9l225 202q37 31 50.5 66.5t-3.5 60.5t-64 25q-81 0 -105 -74h-34q30 107 146 107q59 0 85 -33.5t12 -81t-59 -89.5l-177 -156h196z" />
<glyph unicode="&#xb3;" horiz-adv-x="379" d="M88 484h36q-2 -36 20.5 -56t62.5 -20q55 0 92 29.5t37 78.5q0 43 -40.5 62t-89.5 6l2 10l144 143h-193l7 33h256l-2 -7l-148 -147q47 3 74.5 -24.5t27.5 -71.5q0 -61 -49.5 -103.5t-124.5 -42.5q-57 0 -87.5 29t-24.5 81z" />
<glyph unicode="&#xb4;" horiz-adv-x="303" d="M198 568l1 3l113 131l38 -20l-1 -5l-107 -109h-44z" />
<glyph unicode="&#xb6;" horiz-adv-x="712" d="M511 -190h-48l179 845h-240l-179 -845h-49l78 368q-119 3 -165 102q-42 90 -5 203q39 117 137 176q68 40 150 40h331z" />
<glyph unicode="&#xb7;" horiz-adv-x="216" d="M114 325q-13 0 -21 8t-8 19q0 17 12.5 28t30.5 11q13 0 21.5 -7.5t8.5 -20.5q0 -16 -13.5 -27t-30.5 -11z" />
<glyph unicode="&#xb8;" horiz-adv-x="392" d="M153 -73l38 83h38l-29 -60q48 0 67 -29t-3 -76q-19 -37 -59 -54.5t-80 -12t-63 28.5l10 39q24 -30 78 -30.5t78 38.5q20 39 -8 58.5t-67 14.5z" />
<glyph unicode="&#xb9;" horiz-adv-x="319" d="M77 380l7 33h84l69 325h-74l7 33h113l-76 -358h85l-7 -33h-208z" />
<glyph unicode="&#xba;" horiz-adv-x="536" d="M517 570q0 -71 -37.5 -124t-91.5 -78t-112 -25q-68 0 -114 40t-46 112q0 71 38 124t92 78t112 25q67 0 113 -40t46 -112zM164 502q0 -56 35.5 -87t87.5 -31q70 0 126.5 48t56.5 130q0 55 -34 86.5t-85 31.5q-72 0 -129.5 -47.5t-57.5 -130.5zM69 215l9 43h368l-9 -43 h-368z" />
<glyph unicode="&#xbb;" horiz-adv-x="447" d="M341 346l-64 201l42 12l81 -213l-172 -212l-36 13zM187 346l-64 201l42 12l81 -213l-172 -212l-36 13z" />
<glyph unicode="&#xbc;" horiz-adv-x="846" d="M694 123l21 101q13 62 16 72q2 9 11 43h-1l-206 -216h159zM722 89l-19 -88h-37l19 88h-215l4 19l273 284h39l-57 -268h44l-7 -35h-44zM177 1l486 699h46l-487 -699h-45zM55 317l7 33h84l69 325h-75l7 33h114l-76 -358h85l-7 -33h-208z" />
<glyph unicode="&#xbd;" horiz-adv-x="867" d="M174 1l486 699h46l-487 -699h-45zM54 317l7 33h84l69 325h-75l7 33h114l-76 -358h85l-7 -33h-208zM774 36l-7 -36h-266l2 9l224 202q37 31 51 66.5t-3 60.5t-64 25q-82 0 -105 -74h-34q30 107 146 107q59 0 84.5 -33.5t11.5 -81.5t-59 -89l-177 -156h196z" />
<glyph unicode="&#xbe;" horiz-adv-x="867" d="M715 122l22 102q13 62 16 72l10 43h-1l-211 -217h164zM743 89l-19 -88h-37l19 88h-220l4 19l278 284h39l-57 -269h44l-7 -34h-44zM198 1l487 699h46l-488 -699h-45zM71 422h36q-2 -36 20.5 -56t62.5 -20q55 0 91.5 29.5t36.5 78.5q0 43 -40.5 62t-88.5 6l2 10l143 143 h-193l7 33h256l-1 -7l-148 -147q53 4 81 -30.5t19 -83.5q-13 -57 -60 -92.5t-112 -35.5q-57 0 -87.5 29t-24.5 81z" />
<glyph unicode="&#xbf;" horiz-adv-x="480" d="M241 365h49q-14 -72 -43.5 -125.5t-62.5 -83.5t-65.5 -55.5t-59.5 -58t-38 -73.5q-21 -70 18.5 -100.5t108.5 -30.5q65 0 117.5 29t66.5 92h44q-17 -83 -84.5 -125.5t-154.5 -42.5q-88 0 -139 50t-23 143q13 45 42 80t61.5 61t65 54.5t59.5 75.5t38 110zM296 506 q12 0 20 -7.5t8 -19.5q0 -15 -12.5 -25t-28.5 -10q-27 0 -27 25q0 16 11.5 26.5t28.5 10.5z" />
<glyph unicode="&#xc0;" horiz-adv-x="708" d="M533 202h-381l-138 -202h-56l1 6l476 696h23l177 -696l-1 -6h-49zM432 619l-254 -373h347zM482 764v-3h-44l-61 109l1 5l46 20z" />
<glyph unicode="&#xc1;" horiz-adv-x="708" d="M533 202h-381l-138 -202h-56l1 6l476 696h23l177 -696l-1 -6h-49zM432 619l-254 -373h347zM427 759l1 3l113 131l38 -20l-1 -5l-107 -109h-44z" />
<glyph unicode="&#xc2;" horiz-adv-x="708" d="M533 202h-381l-138 -202h-56l1 6l476 696h23l177 -696l-1 -6h-49zM432 619l-254 -373h347zM604 748h-52l-87 98l-131 -98h-52l1 5l163 124h49l110 -125z" />
<glyph unicode="&#xc3;" horiz-adv-x="708" d="M533 202h-381l-138 -202h-56l1 6l476 696h23l177 -696l-1 -6h-49zM432 619l-254 -373h347zM329 768q-3 3 -13 8.5t-14 8.5q36 46 80.5 57t89.5 -19q27 -22 53 -18.5t54 38.5q5 -3 14 -9t11 -7q-34 -46 -75 -57t-84 18q-61 44 -116 -20z" />
<glyph unicode="&#xc4;" horiz-adv-x="708" d="M533 202h-381l-138 -202h-56l1 6l476 696h23l177 -696l-1 -6h-49zM432 619l-254 -373h347zM334 766q-28 0 -28 26q0 17 11.5 27.5t29.5 10.5q13 0 20.5 -7.5t7.5 -19.5q0 -15 -12.5 -26t-28.5 -11zM553 766q-28 0 -28 26q0 17 11.5 27.5t29.5 10.5q12 0 20 -7.5t8 -19.5 q0 -15 -12.5 -26t-28.5 -11z" />
<glyph unicode="&#xc5;" horiz-adv-x="708" d="M390 785q0 -26 17 -40t43 -14q34 0 61.5 21t27.5 57q0 26 -17.5 40.5t-42.5 14.5q-35 0 -62 -21t-27 -58zM428 615l-252 -369h345zM529 202h-379l-139 -202h-53l1 6l472 690q-35 2 -57.5 23.5t-22.5 58.5q0 56 41 89t94 33q40 0 66 -21.5t26 -61.5q0 -51 -36 -83.5 t-83 -36.5l176 -691l-1 -6h-52z" />
<glyph unicode="&#xc6;" horiz-adv-x="827" d="M171 216l-161 -216h-51l1 7l519 691h373l-9 -45h-304l-57 -268h290l-10 -45h-290l-62 -295h308l-10 -45h-353l46 216h-230zM494 650l-295 -391h211z" />
<glyph unicode="&#xc7;" horiz-adv-x="761" d="M303 -79l32 71q-125 2 -200 81.5t-75 205.5q0 120 60 220t161 155.5t217 54.5q102 0 174.5 -54t86.5 -150h-49q-11 77 -73 117t-151 40q-156 -2 -265 -111t-109 -263q0 -113 59.5 -181t177.5 -68q89 0 171 44.5t131 124.5h50q-50 -98 -139 -153.5t-189 -61.5l-23 -49 q48 0 67 -29t-3 -76q-19 -37 -59 -54.5t-80 -12t-63 28.5l10 39q24 -30 78 -30.5t78 38.5q20 39 -8 58.5t-67 14.5z" />
<glyph unicode="&#xc8;" horiz-adv-x="567" d="M591 700l-10 -44h-354l-57 -272h339q-4 -15 -10 -45h-339q-18 -82 -62 -293h357q-4 -16 -10 -46h-407q103 492 149 700h404zM451 772v-3h-44l-61 109l1 5l46 20z" />
<glyph unicode="&#xc9;" horiz-adv-x="567" d="M591 700l-10 -44h-354l-57 -272h339q-4 -15 -10 -45h-339q-18 -82 -62 -293h357q-4 -16 -10 -46h-407q103 492 149 700h404zM370 766l1 3l113 131l38 -20l-1 -5l-107 -109h-44z" />
<glyph unicode="&#xca;" horiz-adv-x="567" d="M591 700l-10 -44h-354l-57 -272h339q-4 -15 -10 -45h-339q-18 -82 -62 -293h357q-4 -16 -10 -46h-407q103 492 149 700h404zM560 771h-50l-83 96l-125 -96h-49l1 5l155 122h47l105 -123z" />
<glyph unicode="&#xcb;" horiz-adv-x="567" d="M591 700l-10 -44h-354l-57 -272h339q-4 -15 -10 -45h-339q-18 -82 -62 -293h357q-4 -16 -10 -46h-407q103 492 149 700h404zM301 777q-28 0 -28 26q0 17 11.5 27.5t29.5 10.5q13 0 20.5 -7.5t7.5 -19.5q0 -15 -12.5 -26t-28.5 -11zM520 777q-28 0 -28 26q0 17 11.5 27.5 t29.5 10.5q12 0 20 -7.5t8 -19.5q0 -15 -12.5 -26t-28.5 -11z" />
<glyph unicode="&#xcc;" horiz-adv-x="376" d="M161 41h133l-9 -41h-316l9 41h133l131 618h-124l9 41h298l-9 -41h-124zM321 763v-3h-44l-61 109l1 5l46 20z" />
<glyph unicode="&#xcd;" horiz-adv-x="376" d="M161 41h133l-9 -41h-316l9 41h133l131 618h-124l9 41h298l-9 -41h-124zM258 761l1 3l113 131l38 -20l-1 -5l-107 -109h-44z" />
<glyph unicode="&#xce;" horiz-adv-x="376" d="M161 41h133l-9 -41h-316l9 41h133l131 618h-124l9 41h298l-9 -41h-124zM441 758h-50l-83 95l-125 -95h-50l1 5l156 121h47l105 -122z" />
<glyph unicode="&#xcf;" horiz-adv-x="376" d="M161 41h133l-9 -41h-316l9 41h133l131 618h-124l9 41h298l-9 -41h-124zM183 763q-28 0 -28 26q0 17 11.5 27.5t29.5 10.5q13 0 20.5 -7.5t7.5 -19.5q0 -15 -12.5 -26t-28.5 -11zM402 763q-28 0 -28 26q0 17 11.5 27.5t29.5 10.5q12 0 20 -7.5t8 -19.5q0 -15 -12.5 -26 t-28.5 -11z" />
<glyph unicode="&#xd0;" horiz-adv-x="737" d="M25 323l9 42h83l71 335h241q129 0 201.5 -79.5t72.5 -201.5q0 -171 -120.5 -295t-302.5 -124h-241l69 323h-83zM100 47h188q152 0 258 107.5t106 255.5q0 50 -12 91t-37.5 75.5t-72.5 54.5t-112 22h-189l-61 -288h133l-9 -42h-133z" />
<glyph unicode="&#xd1;" horiz-adv-x="743" d="M566 0l-354 597l-48 -245l-75 -352h-51l149 701h20l352 -597l51 262l71 335h51l-149 -701h-17zM362 765q-4 2 -14 8.5t-13 8.5q36 46 80.5 57t89.5 -19q27 -22 53 -18.5t54 38.5q5 -3 14 -9t11 -7q-34 -46 -75 -57t-84 18q-61 44 -116 -20z" />
<glyph unicode="&#xd2;" horiz-adv-x="820" d="M787 422q0 -182 -129 -307.5t-312 -125.5q-129 0 -207.5 80t-78.5 209q0 184 131 308.5t308 124.5q130 0 209 -80t79 -209zM109 287q-4 -112 62 -181.5t177 -69.5q155 0 270 109.5t119 267.5q2 111 -63.5 180.5t-176.5 69.5q-155 0 -269.5 -108.5t-118.5 -267.5zM541 778 v-3h-44l-61 109l1 5l46 20z" />
<glyph unicode="&#xd3;" horiz-adv-x="820" d="M787 422q0 -182 -129 -307.5t-312 -125.5q-129 0 -207.5 80t-78.5 209q0 184 131 308.5t308 124.5q130 0 209 -80t79 -209zM109 287q-4 -112 62 -181.5t177 -69.5q155 0 270 109.5t119 267.5q2 111 -63.5 180.5t-176.5 69.5q-155 0 -269.5 -108.5t-118.5 -267.5zM484 776 l1 3l113 131l38 -20l-1 -5l-107 -109h-44z" />
<glyph unicode="&#xd4;" horiz-adv-x="820" d="M787 422q0 -182 -129 -307.5t-312 -125.5q-129 0 -207.5 80t-78.5 209q0 184 131 308.5t308 124.5q130 0 209 -80t79 -209zM109 287q-4 -112 62 -181.5t177 -69.5q155 0 270 109.5t119 267.5q2 111 -63.5 180.5t-176.5 69.5q-155 0 -269.5 -108.5t-118.5 -267.5zM675 766 h-52l-87 98l-131 -98h-52l1 5l163 124h49l110 -125z" />
<glyph unicode="&#xd5;" horiz-adv-x="820" d="M787 422q0 -182 -129 -307.5t-312 -125.5q-129 0 -207.5 80t-78.5 209q0 184 131 308.5t308 124.5q130 0 209 -80t79 -209zM109 287q-4 -112 62 -181.5t177 -69.5q155 0 270 109.5t119 267.5q2 111 -63.5 180.5t-176.5 69.5q-155 0 -269.5 -108.5t-118.5 -267.5zM406 795 q-4 2 -13.5 8.5t-13.5 8.5q36 46 80.5 57t89.5 -19q27 -22 53 -18.5t54 38.5q5 -3 14 -9t11 -7q-34 -46 -75 -57t-84 18q-61 44 -116 -20z" />
<glyph unicode="&#xd6;" horiz-adv-x="820" d="M787 422q0 -182 -129 -307.5t-312 -125.5q-129 0 -207.5 80t-78.5 209q0 184 131 308.5t308 124.5q130 0 209 -80t79 -209zM109 287q-4 -112 62 -181.5t177 -69.5q155 0 270 109.5t119 267.5q2 111 -63.5 180.5t-176.5 69.5q-155 0 -269.5 -108.5t-118.5 -267.5zM408 792 q-28 0 -28 26q0 17 11.5 27.5t29.5 10.5q13 0 20.5 -7.5t7.5 -19.5q0 -15 -12.5 -26t-28.5 -11zM627 792q-28 0 -28 26q0 17 11.5 27.5t29.5 10.5q12 0 20 -7.5t8 -19.5q0 -15 -12.5 -26t-28.5 -11z" />
<glyph unicode="&#xd7;" horiz-adv-x="430" d="M107 462l34 28l91 -114l139 115l23 -30l-139 -115l88 -112l-34 -29l-89 113l-137 -113l-23 29l137 113z" />
<glyph unicode="&#xd8;" horiz-adv-x="818" d="M766 741l-76 -95q95 -72 95 -224q0 -123 -61.5 -223t-161.5 -154.5t-216 -54.5q-89 0 -153 37l-68 -83h-51l1 5l83 101q-46 34 -72 92.5t-26 133.5q0 123 61.5 223t161.5 155t216 55q89 0 159 -40l59 76h50zM653 602l-427 -531q53 -33 130 -33q153 0 264.5 108t111.5 266 q0 129 -79 190zM194 92l430 534q-56 33 -136 33q-155 0 -266 -107t-111 -266q0 -131 83 -194z" />
<glyph unicode="&#xd9;" horiz-adv-x="706" d="M292 -9q-118 0 -176 66.5t-34 182.5l98 460h50l-98 -459q-20 -96 24.5 -150.5t140.5 -54.5t167.5 55t91.5 150l98 459h49l-98 -460q-24 -116 -109 -182.5t-204 -66.5zM495 767v-3h-44l-61 109l1 5l46 20z" />
<glyph unicode="&#xda;" horiz-adv-x="706" d="M292 -9q-118 0 -176 66.5t-34 182.5l98 460h50l-98 -459q-20 -96 24.5 -150.5t140.5 -54.5t167.5 55t91.5 150l98 459h49l-98 -460q-24 -116 -109 -182.5t-204 -66.5zM420 772l1 3l113 131l38 -20l-1 -5l-107 -109h-44z" />
<glyph unicode="&#xdb;" horiz-adv-x="706" d="M292 -9q-118 0 -176 66.5t-34 182.5l98 460h50l-98 -459q-20 -96 24.5 -150.5t140.5 -54.5t167.5 55t91.5 150l98 459h49l-98 -460q-24 -116 -109 -182.5t-204 -66.5zM621 769h-52l-87 98l-131 -98h-52l1 5l163 124h49l110 -125z" />
<glyph unicode="&#xdc;" horiz-adv-x="706" d="M292 -9q-118 0 -176 66.5t-34 182.5l98 460h50l-98 -459q-20 -96 24.5 -150.5t140.5 -54.5t167.5 55t91.5 150l98 459h49l-98 -460q-24 -116 -109 -182.5t-204 -66.5zM352 794q-28 0 -28 26q0 17 11.5 27.5t29.5 10.5q13 0 20.5 -7.5t7.5 -19.5q0 -15 -12.5 -26 t-28.5 -11zM571 794q-28 0 -28 26q0 17 11.5 27.5t29.5 10.5q12 0 20 -7.5t8 -19.5q0 -15 -12.5 -26t-28.5 -11z" />
<glyph unicode="&#xdd;" horiz-adv-x="622" d="M315 345h2l303 355h58l-1 -7l-344 -402l-62 -291h-50l62 291l-173 403q0 2 0.5 3t0.5 3h51zM370 761l1 3l113 131l38 -20l-1 -5l-107 -109h-44z" />
<glyph unicode="&#xde;" horiz-adv-x="648" d="M122 167h221q98 0 168.5 64t70.5 159q0 68 -43.5 110t-115.5 42h-221zM38 0l149 700h50l-24 -114h220q106 0 160.5 -65.5t32.5 -166.5t-104 -166t-188 -65h-220l-26 -123h-50z" />
<glyph unicode="&#xdf;" horiz-adv-x="581" d="M18 1l107 503q12 57 38.5 98t58 63t72.5 33t78 11.5t79.5 -6t71 -13.5t58.5 -17l-4 -18l-232 -240q74 12 124.5 -36.5t50.5 -128.5q0 -145 -100.5 -216.5t-240.5 -34.5l9 42q118 -30 199.5 28t81.5 177q0 80 -60.5 114.5t-140.5 8.5l6 25l231 248q-47 20 -97.5 25t-99 -7 t-85.5 -51.5t-50 -103.5l-107 -504h-48z" />
<glyph unicode="&#xe0;" horiz-adv-x="590" d="M531 446l-70 -329q-13 -39 -5 -59t52 -15l-8 -43q-59 -9 -78.5 12.5t-7.5 76.5l5 24q-38 -59 -94 -89t-121 -30q-104 0 -146 72.5t-19 179.5q26 115 111.5 180t204.5 65q92 0 176 -45zM442 243l37 174q-64 34 -135 34q-92 0 -163.5 -55t-93.5 -150q-10 -57 -5.5 -103 t38.5 -75t93 -29q84 0 146.5 56.5t82.5 147.5zM412 594v-3h-40l-56 100l1 5l42 18z" />
<glyph unicode="&#xe1;" horiz-adv-x="590" d="M531 446l-70 -329q-13 -39 -5 -59t52 -15l-8 -43q-59 -9 -78.5 12.5t-7.5 76.5l5 24q-38 -59 -94 -89t-121 -30q-104 0 -146 72.5t-19 179.5q26 115 111.5 180t204.5 65q92 0 176 -45zM442 243l37 174q-64 34 -135 34q-92 0 -163.5 -55t-93.5 -150q-10 -57 -5.5 -103 t38.5 -75t93 -29q84 0 146.5 56.5t82.5 147.5zM325 588l1 3l107 123l36 -19l-1 -4l-101 -103h-42z" />
<glyph unicode="&#xe2;" horiz-adv-x="590" d="M531 446l-70 -329q-13 -39 -5 -59t52 -15l-8 -43q-59 -9 -78.5 12.5t-7.5 76.5l5 24q-38 -59 -94 -89t-121 -30q-104 0 -146 72.5t-19 179.5q26 115 111.5 180t204.5 65q92 0 176 -45zM442 243l37 174q-64 34 -135 34q-92 0 -163.5 -55t-93.5 -150q-10 -57 -5.5 -103 t38.5 -75t93 -29q84 0 146.5 56.5t82.5 147.5zM502 587h-46l-76 94l-116 -94h-46l1 4l144 119h43l97 -120z" />
<glyph unicode="&#xe3;" horiz-adv-x="590" d="M531 446l-70 -329q-13 -39 -5 -59t52 -15l-8 -43q-59 -9 -78.5 12.5t-7.5 76.5l5 24q-38 -59 -94 -89t-121 -30q-104 0 -146 72.5t-19 179.5q26 115 111.5 180t204.5 65q92 0 176 -45zM442 243l37 174q-64 34 -135 34q-92 0 -163.5 -55t-93.5 -150q-10 -57 -5.5 -103 t38.5 -75t93 -29q84 0 146.5 56.5t82.5 147.5zM267 624q-3 3 -13 8.5t-12 7.5q34 43 75.5 53t83.5 -18q25 -20 49 -16.5t51 35.5l23 -15q-32 -43 -70 -53.5t-78 17.5q-57 40 -109 -19z" />
<glyph unicode="&#xe4;" horiz-adv-x="590" d="M284 638q-28 0 -28 26q0 17 11.5 27.5t29.5 10.5q13 0 20.5 -7.5t7.5 -19.5q0 -15 -12.5 -26t-28.5 -11zM474 638q-28 0 -28 26q0 17 11.5 27.5t29.5 10.5q12 0 20 -7.5t8 -19.5q0 -15 -12.5 -26t-28.5 -11zM531 446l-70 -329q-13 -39 -5 -59t52 -15l-8 -43 q-59 -9 -78.5 12.5t-7.5 76.5l5 24q-38 -59 -94 -89t-121 -30q-104 0 -146 72.5t-19 179.5q26 115 111.5 180t204.5 65q92 0 176 -45zM442 243l37 174q-64 34 -135 34q-92 0 -163.5 -55t-93.5 -150q-10 -57 -5.5 -103t38.5 -75t93 -29q84 0 146.5 56.5t82.5 147.5z" />
<glyph unicode="&#xe5;" horiz-adv-x="590" d="M531 446l-70 -329q-13 -39 -5 -59t52 -15l-8 -43q-59 -9 -78.5 12.5t-7.5 76.5l5 24q-38 -59 -94 -89t-121 -30q-104 0 -146 72.5t-19 179.5q26 115 111.5 180t204.5 65q92 0 176 -45zM442 243l37 174q-64 34 -135 34q-92 0 -163.5 -55t-93.5 -150q-10 -57 -5.5 -103 t38.5 -75t93 -29q84 0 146.5 56.5t82.5 147.5zM495 679q0 -47 -38.5 -74.5t-86.5 -27.5q-35 0 -59 18.5t-24 50.5q0 49 38.5 76t87.5 27q35 0 58.5 -18t23.5 -52zM323 653q0 -22 16 -34t39 -12q32 0 56.5 17.5t24.5 49.5q0 21 -15.5 32.5t-38.5 11.5q-32 0 -57 -17t-25 -48z " />
<glyph unicode="&#xe6;" horiz-adv-x="877" d="M418 244l37 173q-58 34 -127 34q-105 0 -176.5 -72.5t-71.5 -191.5q0 -74 34 -115t94 -41q74 0 133.5 65.5t76.5 147.5zM474 302q22 -28 70.5 -43t97.5 -15q33 0 63 7.5t58 29.5t38 56q18 56 -20 85t-94 29q-71 1 -127.5 -37.5t-85.5 -111.5zM767 67l-9 -41 q-77 -32 -157 -32q-142 0 -176 113l-23 -107h-33l23 119q-29 -60 -85 -95t-117 -35q-70 0 -113.5 49t-43.5 139q0 143 87.5 228.5t217.5 85.5q79 0 156 -45l-15 -69q38 54 96.5 84.5t121.5 31.5q75 0 122 -41t25 -117q-21 -69 -79 -100.5t-126 -31.5q-125 0 -179 57 q-30 -103 11 -165t141 -62q80 0 155 34z" />
<glyph unicode="&#xe7;" horiz-adv-x="568" d="M184 -73l30 67q-78 6 -129.5 59t-51.5 141q0 70 29 128.5t75.5 95t102 56t110.5 19.5q73 0 124.5 -37.5t59.5 -106.5h-47q-11 49 -52 75.5t-96 25.5q-96 0 -176.5 -69t-80.5 -179q0 -79 45.5 -122.5t115.5 -43.5q58 0 116 30t90 85h53q-38 -74 -106 -113.5t-144 -43.5 l-21 -44q48 0 67 -29t-3 -76q-19 -37 -59 -54.5t-80 -12t-63 28.5l10 39q24 -30 78 -30.5t78 38.5q20 39 -8 58.5t-67 14.5z" />
<glyph unicode="&#xe8;" horiz-adv-x="537" d="M427 71l-10 -46q-85 -33 -171 -33q-132 0 -185.5 76.5t-13.5 208.5q30 101 109.5 158.5t183.5 57.5q82 0 134.5 -41t30.5 -117q-20 -69 -84.5 -101.5t-138.5 -32.5q-136 0 -194 58q-32 -104 11.5 -163t152.5 -59q92 0 175 34zM103 302q24 -28 76.5 -42.5t106.5 -14.5 q58 0 106.5 21t64.5 71q11 38 -7 64.5t-49.5 37t-70.5 10.5q-78 0 -137.5 -37t-89.5 -110zM389 600v-3h-42l-57 103l1 4l43 19z" />
<glyph unicode="&#xe9;" horiz-adv-x="537" d="M427 71l-10 -46q-85 -33 -171 -33q-132 0 -185.5 76.5t-13.5 208.5q30 101 109.5 158.5t183.5 57.5q82 0 134.5 -41t30.5 -117q-20 -69 -84.5 -101.5t-138.5 -32.5q-136 0 -194 58q-32 -104 11.5 -163t152.5 -59q92 0 175 34zM103 302q24 -28 76.5 -42.5t106.5 -14.5 q58 0 106.5 21t64.5 71q11 38 -7 64.5t-49.5 37t-70.5 10.5q-78 0 -137.5 -37t-89.5 -110zM322 592l1 2l105 122l35 -18l-1 -5l-99 -101h-41z" />
<glyph unicode="&#xea;" horiz-adv-x="537" d="M427 71l-10 -46q-85 -33 -171 -33q-132 0 -185.5 76.5t-13.5 208.5q30 101 109.5 158.5t183.5 57.5q82 0 134.5 -41t30.5 -117q-20 -69 -84.5 -101.5t-138.5 -32.5q-136 0 -194 58q-32 -104 11.5 -163t152.5 -59q92 0 175 34zM103 302q24 -28 76.5 -42.5t106.5 -14.5 q58 0 106.5 21t64.5 71q11 38 -7 64.5t-49.5 37t-70.5 10.5q-78 0 -137.5 -37t-89.5 -110zM510 589h-48l-81 90l-121 -90h-48l1 4l151 115h45l102 -116z" />
<glyph unicode="&#xeb;" horiz-adv-x="537" d="M427 71l-10 -46q-85 -33 -171 -33q-132 0 -185.5 76.5t-13.5 208.5q30 101 109.5 158.5t183.5 57.5q82 0 134.5 -41t30.5 -117q-20 -69 -84.5 -101.5t-138.5 -32.5q-136 0 -194 58q-32 -104 11.5 -163t152.5 -59q92 0 175 34zM103 302q24 -28 76.5 -42.5t106.5 -14.5 q58 0 106.5 21t64.5 71q11 38 -7 64.5t-49.5 37t-70.5 10.5q-78 0 -137.5 -37t-89.5 -110zM261 641q-26 0 -26 24q0 15 11.5 25t26.5 10q26 0 26 -25q0 -14 -11.5 -24t-26.5 -10zM464 641q-26 0 -26 24q0 15 11 25t27 10q11 0 18.5 -7t7.5 -18q0 -14 -11.5 -24t-26.5 -10z " />
<glyph unicode="&#xec;" horiz-adv-x="214" d="M172 480l-102 -480h-48l102 480h48zM203 595v-3h-42l-59 105l1 5l44 19z" />
<glyph unicode="&#xed;" horiz-adv-x="214" d="M172 480l-102 -480h-48l102 480h48zM144 588l1 3l108 126l36 -20l-1 -4l-102 -105h-42z" />
<glyph unicode="&#xee;" horiz-adv-x="214" d="M172 480l-102 -480h-48l102 480h48zM293 578h-44l-74 101l-110 -101h-44l1 5l137 129h42l93 -130z" />
<glyph unicode="&#xef;" horiz-adv-x="214" d="M104 638q-28 0 -28 26q0 17 11.5 27.5t29.5 10.5q13 0 20.5 -7.5t7.5 -19.5q0 -15 -12.5 -26t-28.5 -11zM257 638q-28 0 -28 26q0 17 11.5 27.5t29.5 10.5q13 0 20.5 -7.5t7.5 -19.5q0 -15 -12.5 -26t-28.5 -11zM172 480l-102 -480h-48l102 480h48z" />
<glyph unicode="&#xf0;" horiz-adv-x="597" d="M32 186q0 129 91.5 205.5t207.5 78.5q55 0 101.5 -21t67.5 -64q-15 90 -84 192l-79 -48l-11 22l76 48q-45 61 -92 94q0 1 1 2h52q44 -32 77 -77l74 49l10 -23l-68 -45q56 -78 78.5 -174.5t2.5 -191.5l-3 -11q-19 -74 -67.5 -127.5t-108 -78.5t-122.5 -25q-86 0 -145 51.5 t-59 143.5zM494 272q2 74 -45.5 115.5t-118.5 41.5q-94 0 -170.5 -63.5t-80.5 -172.5q-2 -75 44.5 -117t116.5 -42q95 0 172.5 64.5t81.5 173.5z" />
<glyph unicode="&#xf1;" horiz-adv-x="593" d="M64 452l7 33q56 13 77.5 -11t9.5 -80q69 98 202 98q89 0 129.5 -57t22.5 -145l-40 -185q-12 -42 -1.5 -59t52.5 -9l-8 -38q-65 -11 -85.5 13t-6.5 88l41 190q16 74 -16 117.5t-108 43.5q-71 0 -126.5 -45.5t-71.5 -119.5l-61 -286h-48l74 348q17 61 11.5 85t-54.5 19z M255 626q-3 3 -13 8.5t-12 7.5q34 44 76 54t84 -18q26 -20 50.5 -16.5t51.5 35.5q2 -1 10 -7t13 -8q-32 -44 -70.5 -54.5t-79.5 17.5q-56 42 -110 -19z" />
<glyph unicode="&#xf2;" d="M553 292q0 -93 -49 -163.5t-118.5 -103t-144.5 -32.5q-88 0 -148 52.5t-60 147.5q0 93 49 163t118.5 103t145.5 33q87 0 147 -53t60 -147zM80 201q-4 -77 44 -120.5t118 -43.5q97 0 177 67t84 179q2 78 -44 121.5t-117 43.5q-98 0 -178 -66.5t-84 -180.5zM411 597v-3h-41 l-56 101l1 5l42 18z" />
<glyph unicode="&#xf3;" d="M553 292q0 -93 -49 -163.5t-118.5 -103t-144.5 -32.5q-88 0 -148 52.5t-60 147.5q0 93 49 163t118.5 103t145.5 33q87 0 147 -53t60 -147zM80 201q-4 -77 44 -120.5t118 -43.5q97 0 177 67t84 179q2 78 -44 121.5t-117 43.5q-98 0 -178 -66.5t-84 -180.5zM339 592l1 2 l105 122l35 -18l-1 -5l-99 -101h-41z" />
<glyph unicode="&#xf4;" d="M553 292q0 -93 -49 -163.5t-118.5 -103t-144.5 -32.5q-88 0 -148 52.5t-60 147.5q0 93 49 163t118.5 103t145.5 33q87 0 147 -53t60 -147zM80 201q-4 -77 44 -120.5t118 -43.5q97 0 177 67t84 179q2 78 -44 121.5t-117 43.5q-98 0 -178 -66.5t-84 -180.5zM511 585h-47 l-80 94l-120 -94h-47l1 4l149 119h45l100 -120z" />
<glyph unicode="&#xf5;" d="M553 292q0 -93 -49 -163.5t-118.5 -103t-144.5 -32.5q-88 0 -148 52.5t-60 147.5q0 93 49 163t118.5 103t145.5 33q87 0 147 -53t60 -147zM80 201q-4 -77 44 -120.5t118 -43.5q97 0 177 67t84 179q2 78 -44 121.5t-117 43.5q-98 0 -178 -66.5t-84 -180.5zM273 620 q-3 3 -13 8.5t-12 7.5q34 44 76 54t84 -18q26 -20 50.5 -16.5t51.5 35.5q2 -1 10 -7t13 -8q-32 -44 -70.5 -54.5t-79.5 17.5q-56 42 -110 -19z" />
<glyph unicode="&#xf6;" d="M553 292q0 -93 -49 -163.5t-118.5 -103t-144.5 -32.5q-88 0 -148 52.5t-60 147.5q0 93 49 163t118.5 103t145.5 33q87 0 147 -53t60 -147zM80 201q-4 -77 44 -120.5t118 -43.5q97 0 177 67t84 179q2 78 -44 121.5t-117 43.5q-98 0 -178 -66.5t-84 -180.5zM273 634 q-26 0 -26 24q0 15 11.5 25t26.5 10q26 0 26 -25q0 -14 -11.5 -24t-26.5 -10zM476 634q-26 0 -26 24q0 15 11 25t27 10q11 0 18.5 -7t7.5 -18q0 -14 -11.5 -24t-26.5 -10z" />
<glyph unicode="&#xf7;" horiz-adv-x="526" d="M235 179q-12 0 -19.5 7t-7.5 18q0 15 12 25.5t28 10.5q12 0 20 -7t8 -18q0 -15 -13 -25.5t-28 -10.5zM299 477q-12 0 -19.5 7t-7.5 18q0 15 12 25.5t28 10.5q11 0 19 -7t8 -18q0 -15 -12.5 -25.5t-27.5 -10.5zM87 337l9 43h367l-9 -43h-367z" />
<glyph unicode="&#xf8;" d="M553 292q0 -58 -19 -108.5t-50.5 -85t-73 -59.5t-86 -35.5t-89.5 -9.5t-84 15l-47 -65h-41l57 80q-86 52 -86 169q0 71 27.5 130t72.5 94.5t98.5 55t108.5 19t101 -19.5l53 72h42l-63 -87q79 -51 79 -165zM81 203q0 -97 71 -137l264 367q-37 17 -82 17.5t-89 -16.5 t-81 -46.5t-60 -78t-23 -106.5zM505 283q0 92 -63 132l-263 -366q38 -12 81.5 -13t87 18t78.5 48t57 76.5t22 104.5z" />
<glyph unicode="&#xf9;" horiz-adv-x="573" d="M115 482h48l-62 -293q-17 -79 17 -117t107 -38q72 0 122 44t66 119l61 285h47l-76 -359q-13 -59 -6 -76.5t48 -9.5l-7 -39q-60 -9 -78.5 6t-6.5 71q-45 -48 -88 -67t-103 -19q-89 0 -130 56t-21 144zM383 592v-3h-42l-58 104l1 4l44 19z" />
<glyph unicode="&#xfa;" horiz-adv-x="573" d="M115 482h48l-62 -293q-17 -79 17 -117t107 -38q72 0 122 44t66 119l61 285h47l-76 -359q-13 -59 -6 -76.5t48 -9.5l-7 -39q-60 -9 -78.5 6t-6.5 71q-45 -48 -88 -67t-103 -19q-89 0 -130 56t-21 144zM305 589l1 3l107 123l36 -19l-1 -4l-101 -103h-42z" />
<glyph unicode="&#xfb;" horiz-adv-x="573" d="M115 482h48l-62 -293q-17 -79 17 -117t107 -38q72 0 122 44t66 119l61 285h47l-76 -359q-13 -59 -6 -76.5t48 -9.5l-7 -39q-60 -9 -78.5 6t-6.5 71q-45 -48 -88 -67t-103 -19q-89 0 -130 56t-21 144zM505 596h-50l-83 94l-125 -94h-49l1 5l155 118h47l105 -119z" />
<glyph unicode="&#xfc;" horiz-adv-x="573" d="M115 482h48l-62 -293q-17 -79 17 -117t107 -38q72 0 122 44t66 119l61 285h47l-76 -359q-13 -59 -6 -76.5t48 -9.5l-7 -39q-60 -9 -78.5 6t-6.5 71q-45 -48 -88 -67t-103 -19q-89 0 -130 56t-21 144zM252 626q-28 0 -28 25q0 17 12 27t28 10q28 0 28 -26 q0 -15 -12.5 -25.5t-27.5 -10.5zM465 626q-12 0 -19.5 7.5t-7.5 17.5q0 17 12 27t28 10q27 0 27 -26q0 -15 -12 -25.5t-28 -10.5z" />
<glyph unicode="&#xfd;" d="M5 -210l15 43q47 -30 106.5 -42t117.5 -3.5t104.5 53t62.5 120.5l30 138q-72 -111 -206 -111q-99 0 -143 60t-18 179l31 148q12 40 2 58t-56 10q1 6 3.5 19.5t4.5 18.5q67 12 87 -12t8 -89l-32 -153q-22 -105 8.5 -150.5t120.5 -45.5q86 0 144.5 68t76.5 156l48 227h47 l-111 -521q-18 -87 -70.5 -142.5t-118 -71.5t-135.5 -5t-127 48zM326 588l1 3l113 131l38 -20l-1 -5l-107 -109h-44z" />
<glyph unicode="&#xfe;" horiz-adv-x="582" d="M530 298q0 -95 -47 -168.5t-115 -106.5t-148 -27t-141 59l-64 -302h-48l205 966h48l-60 -285q90 56 176.5 58t140 -50t53.5 -144zM480 291q0 81 -49.5 123t-127 34.5t-154.5 -62.5l-60 -282q39 -41 92 -57.5t104.5 -5.5t95.5 40.5t71.5 85t27.5 124.5z" />
<glyph unicode="&#xff;" d="M5 -210l15 43q47 -30 106.5 -42t117.5 -3.5t104.5 53t62.5 120.5l30 138q-72 -111 -206 -111q-99 0 -143 60t-18 179l31 148q12 40 2 58t-56 10q1 6 3.5 19.5t4.5 18.5q67 12 87 -12t8 -89l-32 -153q-22 -105 8.5 -150.5t120.5 -45.5q86 0 144.5 68t76.5 156l48 227h47 l-111 -521q-18 -87 -70.5 -142.5t-118 -71.5t-135.5 -5t-127 48zM267 627q-28 0 -28 26q0 17 11.5 27.5t29.5 10.5q13 0 20.5 -7.5t7.5 -19.5q0 -15 -12.5 -26t-28.5 -11zM486 627q-28 0 -28 26q0 17 11.5 27.5t29.5 10.5q12 0 20 -7.5t8 -19.5q0 -15 -12.5 -26t-28.5 -11z " />
<glyph unicode="&#x152;" horiz-adv-x="929" d="M810 0h-347q-64 -14 -115 -14q-135 0 -211 77t-76 208q0 194 126.5 317t319.5 123q53 0 109 -12h339l-10 -43h-307l-57 -271h293l-10 -45h-293q-37 -176 -63 -296h311zM111 280q0 -113 66 -182t183 -69q51 0 102 13l131 616q-46 10 -94 10q-170 0 -279 -111t-109 -277z " />
<glyph unicode="&#x153;" horiz-adv-x="910" d="M75 196q-4 -76 38 -118t105 -42q90 0 165 68t79 183q2 75 -38.5 118t-102.5 43q-90 0 -166 -68t-80 -184zM512 301q23 -28 69.5 -43.5t93.5 -15.5q52 0 98.5 22t60.5 72q18 56 -19 85t-94 29q-70 1 -125 -37.5t-84 -111.5zM800 65l-9 -41q-76 -33 -156 -33 q-159 0 -182 135q-41 -65 -106 -99.5t-132 -34.5q-77 0 -129 51t-52 143q0 140 88.5 222.5t197.5 82.5q65 0 114 -36.5t62 -103.5q39 67 100.5 104t134.5 37q74 0 120.5 -41t24.5 -117q-20 -69 -77.5 -101t-125.5 -32q-123 0 -176 58q-30 -104 10.5 -166t138.5 -62 q79 0 154 34z" />
<glyph unicode="&#x178;" horiz-adv-x="622" d="M315 345h2l303 355h58l-1 -7l-344 -402l-62 -291h-50l62 291l-173 403q0 2 0.5 3t0.5 3h51zM298 762q-28 0 -28 26q0 17 11.5 27.5t29.5 10.5q13 0 20.5 -7.5t7.5 -19.5q0 -15 -12.5 -26t-28.5 -11zM517 762q-28 0 -28 26q0 17 11.5 27.5t29.5 10.5q12 0 20 -7.5t8 -19.5 q0 -15 -12.5 -26t-28.5 -11z" />
<glyph unicode="&#x2c6;" horiz-adv-x="494" d="M526 574h-52l-87 98l-131 -98h-52l1 5l163 124h49l110 -125z" />
<glyph unicode="&#x2dc;" horiz-adv-x="420" d="M229 631q-4 3 -14 8.5t-13 8.5q36 46 80.5 57t89.5 -19q27 -22 53 -18.5t54 38.5q5 -3 14 -9t11 -7q-34 -46 -75 -57t-84 18q-61 44 -116 -20z" />
<glyph unicode="&#x2000;" horiz-adv-x="455" />
<glyph unicode="&#x2001;" horiz-adv-x="910" />
<glyph unicode="&#x2002;" horiz-adv-x="455" />
<glyph unicode="&#x2003;" horiz-adv-x="910" />
<glyph unicode="&#x2004;" horiz-adv-x="303" />
<glyph unicode="&#x2005;" horiz-adv-x="227" />
<glyph unicode="&#x2006;" horiz-adv-x="151" />
<glyph unicode="&#x2007;" horiz-adv-x="151" />
<glyph unicode="&#x2008;" horiz-adv-x="113" />
<glyph unicode="&#x2009;" horiz-adv-x="182" />
<glyph unicode="&#x200a;" horiz-adv-x="50" />
<glyph unicode="&#x2010;" horiz-adv-x="456" d="M75 312l9 43h313l-9 -43h-313z" />
<glyph unicode="&#x2011;" horiz-adv-x="456" d="M75 312l9 43h313l-9 -43h-313z" />
<glyph unicode="&#x2012;" horiz-adv-x="456" d="M75 312l9 43h313l-9 -43h-313z" />
<glyph unicode="&#x2013;" horiz-adv-x="544" d="M75 312l9 43h401l-9 -43h-401z" />
<glyph unicode="&#x2014;" horiz-adv-x="632" d="M75 312l9 43h489l-9 -43h-489z" />
<glyph unicode="&#x2018;" horiz-adv-x="207" d="M139 611l3 9l6 12l37 69h33l-33 -65q19 -4 19 -24q0 -17 -11.5 -27t-29.5 -10q-26 0 -26 25q0 3 2 11z" />
<glyph unicode="&#x2019;" horiz-adv-x="207" d="M218 665q-4 -12 -9 -21l-36 -68h-34l33 64q-18 4 -18 25q0 15 12 25.5t28 10.5q27 0 27 -24q0 -6 -3 -12z" />
<glyph unicode="&#x201a;" horiz-adv-x="219" d="M85 15q-6 -14 -10 -21q-7 -12 -38 -73h-34l36 70q-19 4 -19 24q0 16 12 26t29 10q12 0 19.5 -6.5t7.5 -17.5q0 -6 -3 -12z" />
<glyph unicode="&#x201c;" horiz-adv-x="343" d="M140 610l10 20l36 69h33l-32 -64q17 -5 17 -25q0 -15 -11.5 -25.5t-27.5 -10.5q-28 0 -28 24q0 6 3 12zM273 610q7 17 9 20l36 69h34l-33 -64q18 -5 18 -25q0 -16 -11.5 -26t-28.5 -10q-27 0 -27 24q0 6 3 12z" />
<glyph unicode="&#x201d;" horiz-adv-x="341" d="M218 665q-4 -12 -9 -21l-36 -68h-34l33 64q-18 4 -18 25q0 15 12 25.5t28 10.5q27 0 27 -24q0 -6 -3 -12zM352 665q-2 -4 -4.5 -10.5t-4.5 -10.5l-36 -68h-34l33 64q-18 4 -18 25q0 16 11.5 26t28.5 10q12 0 19.5 -6.5t7.5 -17.5q0 -6 -3 -12z" />
<glyph unicode="&#x201e;" horiz-adv-x="357" d="M84 15l-10 -20q-7 -13 -20.5 -38t-17.5 -33h-33l34 67q-17 5 -17 24q0 15 11.5 25.5t27.5 10.5q28 0 28 -24q0 -6 -3 -12zM222 15q-7 -17 -9 -20q-22 -38 -38 -71h-34l35 67q-18 5 -18 24q0 16 11.5 26t28.5 10q27 0 27 -24q0 -6 -3 -12z" />
<glyph unicode="&#x2022;" horiz-adv-x="357" d="M175 279q-29 0 -48 19t-19 47q0 38 30 63.5t70 25.5q30 0 49 -17t19 -46q0 -38 -31.5 -65t-69.5 -27z" />
<glyph unicode="&#x2026;" horiz-adv-x="588" d="M50 -6q-13 0 -21 8t-8 19q0 17 12.5 28t30.5 11q13 0 21.5 -7.5t8.5 -19.5q0 -17 -13 -28t-31 -11zM229 -6q-13 0 -21 8t-8 19q0 17 12.5 28t30.5 11q13 0 21.5 -7.5t8.5 -19.5q0 -17 -13 -28t-31 -11zM413 -6q-29 0 -29 27q0 17 12.5 28t30.5 11q13 0 21.5 -7.5 t8.5 -19.5q0 -17 -13 -28t-31 -11z" />
<glyph unicode="&#x202f;" horiz-adv-x="182" />
<glyph unicode="&#x2039;" horiz-adv-x="293" d="M281 547l-150 -201l65 -199l-42 -13l-82 212l172 213z" />
<glyph unicode="&#x203a;" horiz-adv-x="293" d="M187 346l-64 201l42 12l81 -213l-172 -212l-36 13z" />
<glyph unicode="&#x205f;" horiz-adv-x="227" />
<glyph unicode="&#x20ac;" horiz-adv-x="661" d="M73 407l9 39h86q53 119 160.5 190.5t234.5 71.5q56 0 111 -19l-24 -40q-45 17 -95 17q-110 0 -199.5 -58.5t-137.5 -161.5h290l-23 -39h-286q-19 -54 -24 -113h249l-21 -39h-227q4 -100 68.5 -160.5t174.5 -60.5q65 0 129 26l7 -41q-69 -28 -146 -28q-129 0 -205 71.5 t-78 192.5h-85l8 39h79q5 59 24 113h-79z" />
<glyph unicode="&#x2122;" horiz-adv-x="749" d="M250 669h-107l7 32h248l-7 -32h-105l-53 -247h-36zM474 701l94 -158l161 158h22l-60 -279h-37l43 202l-138 -136h-5l-81 136l-43 -202h-37l60 279h21z" />
<glyph unicode="&#x25fc;" horiz-adv-x="480" d="M0 480h480v-480h-480v480z" />
</font>
</defs>
</svg>
